<svg width="41" height="40" viewBox="0 0 41 40" fill="none" xmlns="http://www.w3.org/2000/svg">
<rect x="0.5" width="40" height="40" fill="#F0F0F0"/>
<path d="M20.914 25.8733C20.6873 25.9533 20.314 25.9533 20.0873 25.8733C18.154 25.2133 13.834 22.46 13.834 17.7933C13.834 15.7333 15.494 14.0667 17.5407 14.0667C18.754 14.0667 19.8273 14.6533 20.5007 15.56C21.174 14.6533 22.254 14.0667 23.4607 14.0667C25.5073 14.0667 27.1673 15.7333 27.1673 17.7933C27.1673 22.46 22.8473 25.2133 20.914 25.8733Z" stroke="#292D32" stroke-linecap="round" stroke-linejoin="round"/>
<circle cx="33.5" cy="7" r="7" fill="#3B82F6"/>
<path d="M30.5 6.98381C30.5 5.73864 30.7296 4.76338 31.1889 4.05803C31.6556 3.35268 32.4259 3 33.5 3C34.5741 3 35.3407 3.35268 35.8 4.05803C36.2667 4.76338 36.5 5.73864 36.5 6.98381C36.5 8.23617 36.2667 9.21862 35.8 9.93117C35.3407 10.6437 34.5741 11 33.5 11C32.4259 11 31.6556 10.6437 31.1889 9.93117C30.7296 9.21862 30.5 8.23617 30.5 6.98381ZM34.9667 6.98381C34.9667 6.45119 34.9296 6.00495 34.8556 5.64507C34.7889 5.278 34.6481 4.97931 34.4333 4.74899C34.2259 4.51867 33.9148 4.40351 33.5 4.40351C33.0852 4.40351 32.7704 4.51867 32.5556 4.74899C32.3481 4.97931 32.2074 5.278 32.1333 5.64507C32.0667 6.00495 32.0333 6.45119 32.0333 6.98381C32.0333 7.53081 32.0667 7.99145 32.1333 8.36572C32.2 8.73279 32.3407 9.03149 32.5556 9.26181C32.7704 9.48493 33.0852 9.59649 33.5 9.59649C33.9148 9.59649 34.2296 9.48493 34.4444 9.26181C34.6593 9.03149 34.8 8.73279 34.8667 8.36572C34.9333 7.99145 34.9667 7.53081 34.9667 6.98381Z" fill="white"/>
</svg>
