<svg width="497" height="200" viewBox="0 0 497 200" fill="none" xmlns="http://www.w3.org/2000/svg">
<rect width="497" height="200" fill="#EFF6FF"/>
<path d="M277.125 101.875C277.125 96.7 281.325 92.5 286.5 92.5V88.75C286.5 73.75 282.75 70 267.75 70H230.25C215.25 70 211.5 73.75 211.5 88.75V90.625C216.675 90.625 220.875 94.825 220.875 100C220.875 105.175 216.675 109.375 211.5 109.375V111.25C211.5 126.25 215.25 130 230.25 130H267.75C282.75 130 286.5 126.25 286.5 111.25C281.325 111.25 277.125 107.05 277.125 101.875Z" stroke="#3B82F6" stroke-width="4.5" stroke-linecap="round" stroke-linejoin="round"/>
<path d="M241.5 70L241.5 130" stroke="#3B82F6" stroke-width="4.5" stroke-linecap="round" stroke-linejoin="round" stroke-dasharray="5 5"/>
</svg>
