<svg width="497" height="200" viewBox="0 0 497 200" fill="none" xmlns="http://www.w3.org/2000/svg">
<rect width="497" height="200" fill="#EFF6FF"/>
<path d="M211.5 62.5H218.025C222.075 62.5 225.263 65.9875 224.925 70L221.812 107.35C221.287 113.462 226.125 118.712 232.275 118.712H272.213C277.613 118.712 282.337 114.288 282.75 108.925L284.775 80.8C285.225 74.575 280.5 69.5125 274.237 69.5125H225.825" stroke="#3B82F6" stroke-width="4.5" stroke-miterlimit="10" stroke-linecap="round" stroke-linejoin="round"/>
<path d="M264.938 137.5C267.526 137.5 269.625 135.401 269.625 132.812C269.625 130.224 267.526 128.125 264.938 128.125C262.349 128.125 260.25 130.224 260.25 132.812C260.25 135.401 262.349 137.5 264.938 137.5Z" stroke="#3B82F6" stroke-width="4.5" stroke-miterlimit="10" stroke-linecap="round" stroke-linejoin="round"/>
<path d="M234.938 137.5C237.526 137.5 239.625 135.401 239.625 132.812C239.625 130.224 237.526 128.125 234.938 128.125C232.349 128.125 230.25 130.224 230.25 132.812C230.25 135.401 232.349 137.5 234.938 137.5Z" stroke="#3B82F6" stroke-width="4.5" stroke-miterlimit="10" stroke-linecap="round" stroke-linejoin="round"/>
<path d="M237.75 85H282.75" stroke="#3B82F6" stroke-width="4.5" stroke-miterlimit="10" stroke-linecap="round" stroke-linejoin="round"/>
</svg>
