<svg width="497" height="200" viewBox="0 0 497 200" fill="none" xmlns="http://www.w3.org/2000/svg">
<rect width="497" height="200" fill="#EFF6FF"/>
<path d="M244.318 118.226V125.839C244.318 132.289 238.318 137.501 230.931 137.501C223.543 137.501 217.506 132.289 217.506 125.839V118.226C217.506 124.676 223.506 129.251 230.931 129.251C238.318 129.251 244.318 124.639 244.318 118.226Z" stroke="#3B82F6" stroke-width="4.5" stroke-linecap="round" stroke-linejoin="round"/>
<path d="M244.313 107.912C244.313 109.787 243.788 111.512 242.888 113.012C240.675 116.65 236.138 118.937 230.888 118.937C225.638 118.937 221.1 116.612 218.888 113.012C217.988 111.512 217.463 109.787 217.463 107.912C217.463 104.687 218.963 101.8 221.363 99.6999C223.8 97.5624 227.138 96.2875 230.85 96.2875C234.563 96.2875 237.9 97.5999 240.338 99.6999C242.813 101.762 244.313 104.687 244.313 107.912Z" stroke="#3B82F6" stroke-width="4.5" stroke-linecap="round" stroke-linejoin="round"/>
<path d="M244.318 107.912V118.225C244.318 124.675 238.318 129.25 230.931 129.25C223.543 129.25 217.506 124.637 217.506 118.225V107.912C217.506 101.462 223.506 96.25 230.931 96.25C234.643 96.25 237.981 97.5624 240.419 99.6624C242.819 101.762 244.318 104.687 244.318 107.912Z" stroke="#3B82F6" stroke-width="4.5" stroke-linecap="round" stroke-linejoin="round"/>
<path d="M286.5 96.1374V103.863C286.5 105.925 284.85 107.612 282.75 107.687H275.4C271.35 107.687 267.637 104.725 267.3 100.675C267.075 98.3125 267.975 96.1 269.55 94.5625C270.937 93.1375 272.85 92.3125 274.95 92.3125H282.75C284.85 92.3875 286.5 94.0749 286.5 96.1374Z" stroke="#3B82F6" stroke-width="4.5" stroke-linecap="round" stroke-linejoin="round"/>
<path d="M211.5 94.375V86.875C211.5 76.675 217.65 69.55 227.213 68.35C228.188 68.2 229.2 68.125 230.25 68.125H264C264.975 68.125 265.913 68.1625 266.812 68.3125C276.487 69.4375 282.75 76.6 282.75 86.875V92.3125H274.95C272.85 92.3125 270.937 93.1375 269.55 94.5625C267.975 96.1 267.075 98.3125 267.3 100.675C267.638 104.725 271.35 107.687 275.4 107.687H282.75V113.125C282.75 124.375 275.25 131.875 264 131.875H254.625" stroke="#3B82F6" stroke-width="4.5" stroke-linecap="round" stroke-linejoin="round"/>
</svg>
